<svg width="500" height="500" viewBox="0 0 500 500" fill="none" xmlns="http://www.w3.org/2000/svg">
<circle cx="250" cy="240" r="190" stroke="black" stroke-width="32" stroke-miterlimit="16" stroke-linejoin="round"/>
<mask id="path-2-outside-1_29_2" maskUnits="userSpaceOnUse" x="154" y="94" width="186" height="296" fill="black">
<rect fill="white" x="154" y="94" width="186" height="296"/>
<path d="M218.861 253.141C221.189 252.753 223.518 252.365 225.846 251.977C228.174 251.395 230.696 250.715 233.412 249.939C230.114 246.835 225.749 244.895 220.316 244.119C219.734 247.223 219.249 250.23 218.861 253.141ZM337.887 163.217C337.111 171.559 334.88 180.29 331.193 189.408C327.701 198.527 322.754 207.354 316.352 215.891C309.949 224.427 302.189 232.382 293.07 239.754C283.952 247.126 273.572 253.141 261.932 257.797C263.678 261.095 265.327 264.587 266.879 268.273C268.431 271.96 269.789 276.131 270.953 280.787C272.699 286.995 274.154 293.398 275.318 299.994C276.676 306.59 277.743 312.993 278.52 319.201C279.49 325.41 280.266 331.133 280.848 336.371C281.624 341.803 282.206 346.266 282.594 349.758C283.37 355.578 285.213 359.652 288.123 361.98C291.227 364.503 294.622 365.861 298.309 366.055C302.189 366.443 305.972 366.055 309.658 364.891C313.538 363.727 316.546 362.465 318.68 361.107C318.486 361.301 317.419 362.951 315.479 366.055C313.538 369.353 310.919 372.748 307.621 376.24C304.323 379.926 300.346 383.031 295.689 385.553C291.227 388.269 286.183 389.142 280.557 388.172C276.676 387.59 273.184 386.232 270.08 384.098C267.17 382.158 264.551 379.15 262.223 375.076C260.089 371.196 258.342 366.152 256.984 359.943C255.626 353.735 254.753 346.169 254.365 337.244C253.977 325.215 253.492 313.769 252.91 302.904C252.522 291.846 250.485 281.66 246.799 272.348C246.217 270.796 245.635 269.34 245.053 267.982C244.471 266.43 243.792 265.072 243.016 263.908C235.061 265.848 226.137 267.109 216.242 267.691C214.884 275.064 213.429 282.63 211.877 290.391C210.325 298.151 208.676 305.717 206.93 313.09C205.378 320.462 203.632 327.35 201.691 333.752C199.945 340.348 198.199 345.975 196.453 350.631C194.513 355.481 191.991 359.361 188.887 362.271C185.977 365.376 181.223 366.928 174.627 366.928C170.747 366.928 167.352 366.055 164.441 364.309C161.531 362.562 158.718 360.137 156.002 357.033C156.778 356.451 158.039 355.481 159.785 354.123C161.337 352.959 163.277 350.437 165.605 346.557C167.74 342.87 170.068 337.535 172.59 330.551C175.306 323.566 178.022 314.157 180.738 302.322C181.708 297.472 182.969 291.846 184.521 285.443C186.268 278.847 188.111 271.669 190.051 263.908C182.29 259.64 178.701 253.917 179.283 246.738C179.671 242.276 181.708 238.493 185.395 235.389C189.081 232.285 193.543 230.15 198.781 228.986C201.303 218.898 203.826 208.712 206.348 198.43C209.064 188.147 211.586 178.544 213.914 169.619C216.242 160.501 218.376 152.352 220.316 145.174C222.257 137.801 223.809 131.981 224.973 127.713C221.48 130.041 217.988 132.66 214.496 135.57C211.392 138.092 207.997 141.003 204.311 144.301C200.818 147.405 197.52 150.703 194.416 154.195C192.864 153.031 191.603 151.77 190.633 150.412C189.663 149.054 188.887 147.89 188.305 146.92C187.529 145.756 186.947 144.495 186.559 143.137C185.201 140.421 184.521 137.51 184.521 134.406C184.521 131.108 186.85 127.81 191.506 124.512C194.028 122.766 197.811 120.243 202.855 116.945C208.094 113.647 214.496 110.446 222.062 107.342C229.629 104.238 238.359 101.521 248.254 99.1934C258.342 96.8652 269.498 95.7012 281.721 95.7012C293.943 95.7012 303.838 98.1263 311.404 102.977C318.971 107.827 324.791 113.744 328.865 120.729C332.939 127.713 335.559 135.085 336.723 142.846C338.081 150.606 338.469 157.396 337.887 163.217ZM250 243.246C256.79 239.948 263.484 235.874 270.08 231.023C276.87 226.173 282.982 220.353 288.414 213.562C293.846 206.772 298.406 199.109 302.092 190.572C305.778 181.842 308.106 172.044 309.076 161.18C309.852 151.479 309.173 143.428 307.039 137.025C305.099 130.429 302.092 125.191 298.018 121.311C294.137 117.43 289.675 114.714 284.631 113.162C279.587 111.416 274.542 110.543 269.498 110.543C264.842 110.543 260.089 111.222 255.238 112.58C250.582 113.938 246.023 115.684 241.561 117.818C242.143 118.012 242.822 118.497 243.598 119.273C243.986 119.855 244.374 120.632 244.762 121.602C245.344 122.378 245.732 123.251 245.926 124.221C241.464 143.04 237.874 158.755 235.158 171.365C232.442 183.976 230.211 194.258 228.465 202.213C226.331 211.525 224.779 218.995 223.809 224.621C223.615 225.397 223.421 226.173 223.227 226.949C223.227 227.725 223.13 228.598 222.936 229.568C227.204 230.538 231.666 232.09 236.322 234.225C240.979 236.165 245.538 239.172 250 243.246Z"/>
</mask>
<path d="M218.861 253.141C221.189 252.753 223.518 252.365 225.846 251.977C228.174 251.395 230.696 250.715 233.412 249.939C230.114 246.835 225.749 244.895 220.316 244.119C219.734 247.223 219.249 250.23 218.861 253.141ZM337.887 163.217C337.111 171.559 334.88 180.29 331.193 189.408C327.701 198.527 322.754 207.354 316.352 215.891C309.949 224.427 302.189 232.382 293.07 239.754C283.952 247.126 273.572 253.141 261.932 257.797C263.678 261.095 265.327 264.587 266.879 268.273C268.431 271.96 269.789 276.131 270.953 280.787C272.699 286.995 274.154 293.398 275.318 299.994C276.676 306.59 277.743 312.993 278.52 319.201C279.49 325.41 280.266 331.133 280.848 336.371C281.624 341.803 282.206 346.266 282.594 349.758C283.37 355.578 285.213 359.652 288.123 361.98C291.227 364.503 294.622 365.861 298.309 366.055C302.189 366.443 305.972 366.055 309.658 364.891C313.538 363.727 316.546 362.465 318.68 361.107C318.486 361.301 317.419 362.951 315.479 366.055C313.538 369.353 310.919 372.748 307.621 376.24C304.323 379.926 300.346 383.031 295.689 385.553C291.227 388.269 286.183 389.142 280.557 388.172C276.676 387.59 273.184 386.232 270.08 384.098C267.17 382.158 264.551 379.15 262.223 375.076C260.089 371.196 258.342 366.152 256.984 359.943C255.626 353.735 254.753 346.169 254.365 337.244C253.977 325.215 253.492 313.769 252.91 302.904C252.522 291.846 250.485 281.66 246.799 272.348C246.217 270.796 245.635 269.34 245.053 267.982C244.471 266.43 243.792 265.072 243.016 263.908C235.061 265.848 226.137 267.109 216.242 267.691C214.884 275.064 213.429 282.63 211.877 290.391C210.325 298.151 208.676 305.717 206.93 313.09C205.378 320.462 203.632 327.35 201.691 333.752C199.945 340.348 198.199 345.975 196.453 350.631C194.513 355.481 191.991 359.361 188.887 362.271C185.977 365.376 181.223 366.928 174.627 366.928C170.747 366.928 167.352 366.055 164.441 364.309C161.531 362.562 158.718 360.137 156.002 357.033C156.778 356.451 158.039 355.481 159.785 354.123C161.337 352.959 163.277 350.437 165.605 346.557C167.74 342.87 170.068 337.535 172.59 330.551C175.306 323.566 178.022 314.157 180.738 302.322C181.708 297.472 182.969 291.846 184.521 285.443C186.268 278.847 188.111 271.669 190.051 263.908C182.29 259.64 178.701 253.917 179.283 246.738C179.671 242.276 181.708 238.493 185.395 235.389C189.081 232.285 193.543 230.15 198.781 228.986C201.303 218.898 203.826 208.712 206.348 198.43C209.064 188.147 211.586 178.544 213.914 169.619C216.242 160.501 218.376 152.352 220.316 145.174C222.257 137.801 223.809 131.981 224.973 127.713C221.48 130.041 217.988 132.66 214.496 135.57C211.392 138.092 207.997 141.003 204.311 144.301C200.818 147.405 197.52 150.703 194.416 154.195C192.864 153.031 191.603 151.77 190.633 150.412C189.663 149.054 188.887 147.89 188.305 146.92C187.529 145.756 186.947 144.495 186.559 143.137C185.201 140.421 184.521 137.51 184.521 134.406C184.521 131.108 186.85 127.81 191.506 124.512C194.028 122.766 197.811 120.243 202.855 116.945C208.094 113.647 214.496 110.446 222.062 107.342C229.629 104.238 238.359 101.521 248.254 99.1934C258.342 96.8652 269.498 95.7012 281.721 95.7012C293.943 95.7012 303.838 98.1263 311.404 102.977C318.971 107.827 324.791 113.744 328.865 120.729C332.939 127.713 335.559 135.085 336.723 142.846C338.081 150.606 338.469 157.396 337.887 163.217ZM250 243.246C256.79 239.948 263.484 235.874 270.08 231.023C276.87 226.173 282.982 220.353 288.414 213.562C293.846 206.772 298.406 199.109 302.092 190.572C305.778 181.842 308.106 172.044 309.076 161.18C309.852 151.479 309.173 143.428 307.039 137.025C305.099 130.429 302.092 125.191 298.018 121.311C294.137 117.43 289.675 114.714 284.631 113.162C279.587 111.416 274.542 110.543 269.498 110.543C264.842 110.543 260.089 111.222 255.238 112.58C250.582 113.938 246.023 115.684 241.561 117.818C242.143 118.012 242.822 118.497 243.598 119.273C243.986 119.855 244.374 120.632 244.762 121.602C245.344 122.378 245.732 123.251 245.926 124.221C241.464 143.04 237.874 158.755 235.158 171.365C232.442 183.976 230.211 194.258 228.465 202.213C226.331 211.525 224.779 218.995 223.809 224.621C223.615 225.397 223.421 226.173 223.227 226.949C223.227 227.725 223.13 228.598 222.936 229.568C227.204 230.538 231.666 232.09 236.322 234.225C240.979 236.165 245.538 239.172 250 243.246Z" fill="black"/>
<path d="M218.861 253.141L217.87 253.008L217.691 254.349L219.026 254.127L218.861 253.141ZM225.846 251.977L226.01 252.963L226.049 252.956L226.088 252.947L225.846 251.977ZM233.412 249.939L233.687 250.901L235.379 250.417L234.097 249.211L233.412 249.939ZM220.316 244.119L220.458 243.129L219.51 242.994L219.334 243.935L220.316 244.119ZM337.887 163.217L336.892 163.117L336.891 163.124L337.887 163.217ZM331.193 189.408L330.266 189.033L330.263 189.042L330.26 189.051L331.193 189.408ZM293.07 239.754L292.442 238.976L293.07 239.754ZM261.932 257.797L261.56 256.868L260.527 257.282L261.048 258.265L261.932 257.797ZM270.953 280.787L269.983 281.03L269.987 281.044L269.99 281.058L270.953 280.787ZM275.318 299.994L274.334 300.168L274.336 300.182L274.339 300.196L275.318 299.994ZM278.52 319.201L277.527 319.325L277.529 319.34L277.532 319.356L278.52 319.201ZM280.848 336.371L279.854 336.482L279.855 336.497L279.858 336.513L280.848 336.371ZM282.594 349.758L281.6 349.868L281.601 349.879L281.603 349.89L282.594 349.758ZM288.123 361.98L288.754 361.204L288.748 361.2L288.123 361.98ZM298.309 366.055L298.408 365.06L298.385 365.057L298.361 365.056L298.309 366.055ZM309.658 364.891L309.371 363.933L309.364 363.935L309.357 363.937L309.658 364.891ZM318.68 361.107L319.387 361.815L318.143 360.264L318.68 361.107ZM315.479 366.055L314.631 365.525L314.623 365.536L314.617 365.548L315.479 366.055ZM307.621 376.24L306.894 375.554L306.885 375.563L306.876 375.573L307.621 376.24ZM295.689 385.553L295.213 384.673L295.191 384.685L295.17 384.699L295.689 385.553ZM280.557 388.172L280.727 387.186L280.716 387.185L280.705 387.183L280.557 388.172ZM270.08 384.098L270.647 383.274L270.641 383.27L270.635 383.266L270.08 384.098ZM262.223 375.076L261.346 375.558L261.35 375.565L261.354 375.572L262.223 375.076ZM254.365 337.244L253.366 337.276L253.366 337.288L254.365 337.244ZM252.91 302.904L251.911 302.939L251.911 302.949L251.912 302.958L252.91 302.904ZM246.799 272.348L245.862 272.699L245.866 272.707L245.869 272.716L246.799 272.348ZM245.053 267.982L244.116 268.334L244.125 268.355L244.134 268.376L245.053 267.982ZM243.016 263.908L243.848 263.354L243.459 262.771L242.779 262.937L243.016 263.908ZM216.242 267.691L216.183 266.693L215.401 266.739L215.259 267.51L216.242 267.691ZM206.93 313.09L205.957 312.859L205.954 312.872L205.951 312.884L206.93 313.09ZM201.691 333.752L200.734 333.462L200.729 333.479L200.725 333.496L201.691 333.752ZM196.453 350.631L197.382 351.002L197.386 350.992L197.389 350.982L196.453 350.631ZM188.887 362.271L188.203 361.542L188.179 361.564L188.157 361.588L188.887 362.271ZM156.002 357.033L155.402 356.233L154.539 356.88L155.249 357.692L156.002 357.033ZM159.785 354.123L159.185 353.323L159.178 353.328L159.171 353.334L159.785 354.123ZM165.605 346.557L166.463 347.071L166.467 347.064L166.471 347.058L165.605 346.557ZM172.59 330.551L171.658 330.188L171.653 330.2L171.649 330.211L172.59 330.551ZM180.738 302.322L181.713 302.546L181.716 302.532L181.719 302.518L180.738 302.322ZM184.521 285.443L183.555 285.187L183.552 285.198L183.55 285.208L184.521 285.443ZM190.051 263.908L191.021 264.151L191.208 263.403L190.533 263.032L190.051 263.908ZM179.283 246.738L178.287 246.652L178.286 246.657L179.283 246.738ZM198.781 228.986L198.998 229.963L199.601 229.828L199.751 229.229L198.781 228.986ZM206.348 198.43L205.381 198.174L205.379 198.183L205.376 198.191L206.348 198.43ZM213.914 169.619L214.882 169.872L214.883 169.867L213.914 169.619ZM220.316 145.174L221.282 145.435L221.283 145.428L220.316 145.174ZM224.973 127.713L225.937 127.976L226.64 125.399L224.418 126.881L224.973 127.713ZM214.496 135.57L215.127 136.346L215.136 136.339L214.496 135.57ZM204.311 144.301L204.975 145.048L204.977 145.046L204.311 144.301ZM194.416 154.195L193.816 154.995L194.552 155.547L195.163 154.86L194.416 154.195ZM188.305 146.92L189.162 146.405L189.15 146.385L189.137 146.365L188.305 146.92ZM186.559 143.137L187.52 142.862L187.495 142.773L187.453 142.69L186.559 143.137ZM191.506 124.512L190.937 123.689L190.928 123.696L191.506 124.512ZM202.855 116.945L202.323 116.099L202.315 116.104L202.308 116.108L202.855 116.945ZM248.254 99.1934L248.029 98.219L248.025 98.2199L248.254 99.1934ZM336.723 142.846L335.734 142.994L335.736 143.006L335.738 143.018L336.723 142.846ZM250 243.246L249.326 243.985L249.827 244.442L250.437 244.146L250 243.246ZM270.08 231.023L269.499 230.21L269.488 230.218L270.08 231.023ZM302.092 190.572L303.01 190.969L303.013 190.961L302.092 190.572ZM309.076 161.18L310.072 161.269L310.073 161.259L309.076 161.18ZM307.039 137.025L306.08 137.308L306.085 137.325L306.09 137.342L307.039 137.025ZM298.018 121.311L297.31 122.018L297.319 122.026L297.328 122.035L298.018 121.311ZM284.631 113.162L284.304 114.107L284.32 114.113L284.337 114.118L284.631 113.162ZM255.238 112.58L254.969 111.617L254.958 111.62L255.238 112.58ZM241.561 117.818L241.129 116.916L238.896 117.984L241.244 118.767L241.561 117.818ZM243.598 119.273L244.43 118.719L244.375 118.636L244.305 118.566L243.598 119.273ZM244.762 121.602L243.833 121.973L243.882 122.096L243.962 122.202L244.762 121.602ZM245.926 124.221L246.899 124.451L246.949 124.239L246.906 124.025L245.926 124.221ZM228.465 202.213L229.44 202.436L229.442 202.427L228.465 202.213ZM223.809 224.621L224.779 224.864L224.788 224.828L224.794 224.791L223.809 224.621ZM223.227 226.949L222.256 226.707L222.227 226.826V226.949H223.227ZM222.936 229.568L221.955 229.372L221.764 230.328L222.714 230.543L222.936 229.568ZM236.322 234.225L235.906 235.134L235.922 235.141L235.938 235.148L236.322 234.225ZM218.861 253.141L219.026 254.127C219.058 254.122 219.103 254.114 219.135 254.109C219.167 254.103 219.212 254.096 219.244 254.091C219.276 254.085 219.321 254.078 219.353 254.072C219.385 254.067 219.43 254.06 219.462 254.054C219.495 254.049 219.539 254.041 219.571 254.036C219.604 254.031 219.648 254.023 219.681 254.018C219.713 254.012 219.757 254.005 219.79 254C219.822 253.994 219.866 253.987 219.899 253.982C219.931 253.976 219.976 253.969 220.008 253.963C220.04 253.958 220.085 253.951 220.117 253.945C220.149 253.94 220.194 253.932 220.226 253.927C220.259 253.922 220.303 253.914 220.335 253.909C220.368 253.903 220.412 253.896 220.444 253.891C220.477 253.885 220.521 253.878 220.554 253.872C220.586 253.867 220.63 253.86 220.663 253.854C220.695 253.849 220.739 253.841 220.772 253.836C220.804 253.831 220.849 253.823 220.881 253.818C220.913 253.812 220.958 253.805 220.99 253.8C221.022 253.794 221.067 253.787 221.099 253.781C221.132 253.776 221.176 253.769 221.208 253.763C221.241 253.758 221.285 253.75 221.317 253.745C221.35 253.74 221.394 253.732 221.427 253.727C221.459 253.721 221.503 253.714 221.536 253.709C221.568 253.703 221.613 253.696 221.645 253.69C221.677 253.685 221.722 253.678 221.754 253.672C221.786 253.667 221.831 253.66 221.863 253.654C221.895 253.649 221.94 253.641 221.972 253.636C222.005 253.631 222.049 253.623 222.081 253.618C222.114 253.612 222.158 253.605 222.191 253.6C222.223 253.594 222.267 253.587 222.3 253.581C222.332 253.576 222.376 253.569 222.409 253.563C222.441 253.558 222.486 253.55 222.518 253.545C222.776 253.502 223.132 253.443 223.391 253.399C223.649 253.356 224.006 253.297 224.264 253.254C224.522 253.211 224.879 253.152 225.137 253.108C225.396 253.065 225.752 253.006 226.01 252.963L225.846 251.977L225.681 250.99C225.677 250.991 225.672 250.992 225.668 250.992C225.663 250.993 225.659 250.994 225.654 250.995C225.649 250.995 225.645 250.996 225.64 250.997C225.636 250.998 225.631 250.999 225.627 250.999C225.622 251 225.618 251.001 225.613 251.002C225.609 251.002 225.604 251.003 225.599 251.004C225.595 251.005 225.59 251.005 225.586 251.006C225.581 251.007 225.577 251.008 225.572 251.008C225.491 251.022 225.544 251.013 225.463 251.027C225.382 251.04 225.435 251.031 225.354 251.045C225.273 251.058 225.326 251.049 225.245 251.063C225.164 251.076 225.216 251.068 225.136 251.081C225.055 251.095 225.107 251.086 225.027 251.099C224.946 251.113 224.998 251.104 224.917 251.117C224.837 251.131 224.889 251.122 224.808 251.136C224.727 251.149 224.78 251.14 224.699 251.154C224.618 251.167 224.671 251.159 224.59 251.172C224.509 251.186 224.562 251.177 224.481 251.19C224.4 251.204 224.453 251.195 224.372 251.208C224.291 251.222 224.343 251.213 224.263 251.227C224.182 251.24 224.234 251.231 224.153 251.245C224.073 251.258 224.125 251.25 224.044 251.263C223.964 251.276 224.016 251.268 223.935 251.281C223.854 251.295 223.907 251.286 223.826 251.299C223.745 251.313 223.798 251.304 223.717 251.318C223.636 251.331 223.689 251.322 223.608 251.336C223.527 251.349 223.58 251.34 223.499 251.354C223.418 251.367 223.47 251.359 223.39 251.372C223.309 251.386 223.361 251.377 223.28 251.39C223.2 251.404 223.252 251.395 223.171 251.409C223.09 251.422 223.143 251.413 223.062 251.427C222.981 251.44 223.034 251.431 222.953 251.445C222.872 251.458 222.925 251.45 222.844 251.463C222.763 251.477 222.816 251.468 222.735 251.481C222.654 251.495 222.706 251.486 222.626 251.499C222.545 251.513 222.597 251.504 222.517 251.518C222.436 251.531 222.488 251.522 222.407 251.536C222.327 251.549 222.379 251.541 222.298 251.554C222.217 251.567 222.27 251.559 222.189 251.572C222.153 251.578 222.171 251.575 222.135 251.581C222.098 251.587 222.116 251.584 222.08 251.59C222.044 251.596 222.062 251.593 222.025 251.599C221.989 251.606 222.007 251.603 221.971 251.609C221.934 251.615 221.953 251.612 221.916 251.618C221.88 251.624 221.898 251.621 221.862 251.627C221.825 251.633 221.844 251.63 221.807 251.636C221.771 251.642 221.789 251.639 221.753 251.645C221.716 251.651 221.734 251.648 221.698 251.654C221.662 251.66 221.68 251.657 221.643 251.663C221.607 251.669 221.625 251.666 221.589 251.672C221.553 251.678 221.571 251.675 221.534 251.681C221.498 251.687 221.516 251.684 221.48 251.69C221.443 251.696 221.462 251.693 221.425 251.7C221.389 251.706 221.407 251.703 221.371 251.709C221.334 251.715 221.352 251.712 221.316 251.718C221.28 251.724 221.298 251.721 221.262 251.727C221.225 251.733 221.243 251.73 221.207 251.736C221.171 251.742 221.189 251.739 221.152 251.745C221.116 251.751 221.134 251.748 221.098 251.754C221.061 251.76 221.08 251.757 221.043 251.763C221.007 251.769 221.025 251.766 220.989 251.772C220.952 251.778 220.97 251.775 220.934 251.781C220.898 251.787 220.916 251.784 220.88 251.79C220.843 251.797 220.861 251.793 220.825 251.8C220.789 251.806 220.807 251.803 220.77 251.809C220.734 251.815 220.752 251.812 220.716 251.818C220.679 251.824 220.698 251.821 220.661 251.827C220.625 251.833 220.643 251.83 220.607 251.836C220.57 251.842 220.589 251.839 220.552 251.845C220.516 251.851 220.534 251.848 220.498 251.854C220.461 251.86 220.479 251.857 220.443 251.863C220.407 251.869 220.425 251.866 220.388 251.872C220.352 251.878 220.37 251.875 220.334 251.881C220.298 251.887 220.316 251.884 220.279 251.891C220.243 251.897 220.261 251.894 220.225 251.9C220.188 251.906 220.207 251.903 220.17 251.909C220.134 251.915 220.152 251.912 220.116 251.918C220.079 251.924 220.097 251.921 220.061 251.927C220.025 251.933 220.043 251.93 220.007 251.936C219.97 251.942 219.988 251.939 219.952 251.945C219.916 251.951 219.934 251.948 219.897 251.954C219.861 251.96 219.879 251.957 219.843 251.963C219.806 251.969 219.825 251.966 219.788 251.972C219.752 251.978 219.77 251.975 219.734 251.981C219.697 251.988 219.715 251.984 219.679 251.991C219.643 251.997 219.661 251.994 219.625 252C219.62 252 219.615 252.001 219.611 252.002C219.606 252.003 219.602 252.003 219.597 252.004C219.593 252.005 219.588 252.006 219.584 252.006C219.579 252.007 219.575 252.008 219.57 252.009C219.311 252.052 218.955 252.111 218.697 252.154L218.861 253.141ZM225.846 251.977L226.088 252.947C228.429 252.362 230.962 251.68 233.687 250.901L233.412 249.939L233.137 248.978C230.43 249.751 227.919 250.428 225.603 251.006L225.846 251.977ZM233.412 249.939L234.097 249.211C230.62 245.938 226.05 243.928 220.458 243.129L220.316 244.119L220.175 245.109C225.447 245.862 229.608 247.732 232.727 250.668L233.412 249.939ZM220.316 244.119L219.334 243.935C218.749 247.055 218.261 250.08 217.87 253.008L218.861 253.141L219.853 253.273C220.238 250.381 220.72 247.392 221.299 244.303L220.316 244.119ZM337.887 163.217L336.891 163.124C336.125 171.355 333.922 179.99 330.266 189.033L331.193 189.408L332.12 189.783C335.837 180.59 338.096 171.764 338.882 163.309L337.887 163.217ZM331.193 189.408L330.26 189.051C326.803 198.075 321.903 206.822 315.552 215.291L316.352 215.891L317.152 216.491C323.604 207.887 328.599 198.979 332.127 189.766L331.193 189.408ZM316.352 215.891L315.552 215.291C309.203 223.755 301.502 231.651 292.442 238.976L293.07 239.754L293.699 240.532C302.875 233.112 310.695 225.099 317.152 216.491L316.352 215.891ZM293.07 239.754L292.442 238.976C283.406 246.282 273.114 252.247 261.56 256.868L261.932 257.797L262.303 258.725C274.03 254.035 284.498 247.971 293.699 240.532L293.07 239.754ZM261.932 257.797L261.048 258.265C262.779 261.535 264.416 265.001 265.957 268.661L266.879 268.273L267.801 267.885C266.238 264.174 264.576 260.655 262.815 257.329L261.932 257.797ZM266.879 268.273L265.957 268.661C267.486 272.292 268.829 276.414 269.983 281.03L270.953 280.787L271.923 280.545C270.749 275.848 269.376 271.627 267.801 267.885L266.879 268.273ZM270.953 280.787L269.99 281.058C271.727 287.233 273.175 293.603 274.334 300.168L275.318 299.994L276.303 299.82C275.134 293.193 273.671 286.758 271.916 280.516L270.953 280.787ZM275.318 299.994L274.339 300.196C275.692 306.768 276.755 313.145 277.527 319.325L278.52 319.201L279.512 319.077C278.732 312.841 277.661 306.413 276.298 299.792L275.318 299.994ZM278.52 319.201L277.532 319.356C278.5 325.552 279.274 331.26 279.854 336.482L280.848 336.371L281.842 336.261C281.258 331.005 280.479 325.267 279.508 319.047L278.52 319.201ZM280.848 336.371L279.858 336.513C280.633 341.94 281.213 346.39 281.6 349.868L282.594 349.758L283.588 349.647C283.198 346.141 282.614 341.667 281.838 336.23L280.848 336.371ZM282.594 349.758L281.603 349.89C282.394 355.824 284.298 360.201 287.498 362.761L288.123 361.98L288.748 361.2C286.128 359.104 284.346 355.332 283.585 349.626L282.594 349.758ZM288.123 361.98L287.492 362.757C290.746 365.4 294.341 366.847 298.256 367.053L298.309 366.055L298.361 365.056C294.904 364.874 291.708 363.605 288.754 361.204L288.123 361.98ZM298.309 366.055L298.209 367.05C302.223 367.451 306.143 367.049 309.959 365.844L309.658 364.891L309.357 363.937C305.801 365.06 302.155 365.434 298.408 365.06L298.309 366.055ZM309.658 364.891L309.946 365.848C313.868 364.672 316.973 363.379 319.217 361.951L318.68 361.107L318.143 360.264C316.118 361.552 313.209 362.781 309.371 363.933L309.658 364.891ZM318.68 361.107L317.973 360.4C317.843 360.53 317.682 360.761 317.545 360.961C317.38 361.202 317.163 361.532 316.894 361.947C316.356 362.778 315.601 363.971 314.631 365.525L315.479 366.055L316.327 366.585C317.296 365.034 318.044 363.851 318.573 363.033C318.838 362.623 319.045 362.31 319.196 362.09C319.374 361.83 319.419 361.782 319.387 361.815L318.68 361.107ZM315.479 366.055L314.617 365.548C312.723 368.767 310.153 372.103 306.894 375.554L307.621 376.24L308.348 376.927C311.685 373.393 314.354 369.939 316.34 366.562L315.479 366.055ZM307.621 376.24L306.876 375.573C303.66 379.168 299.775 382.202 295.213 384.673L295.689 385.553L296.166 386.432C300.916 383.859 304.986 380.685 308.366 376.907L307.621 376.24ZM295.689 385.553L295.17 384.699C290.934 387.277 286.138 388.12 280.727 387.186L280.557 388.172L280.387 389.157C286.227 390.164 291.521 389.261 296.209 386.407L295.689 385.553ZM280.557 388.172L280.705 387.183C276.968 386.622 273.62 385.318 270.647 383.274L270.08 384.098L269.514 384.922C272.748 387.145 276.384 388.557 280.408 389.161L280.557 388.172ZM270.08 384.098L270.635 383.266C267.89 381.436 265.367 378.563 263.091 374.58L262.223 375.076L261.354 375.572C263.734 379.737 266.45 382.879 269.525 384.93L270.08 384.098ZM262.223 375.076L263.099 374.594C261.026 370.826 259.307 365.881 257.961 359.73L256.984 359.943L256.007 360.157C257.378 366.422 259.151 371.566 261.346 375.558L262.223 375.076ZM256.984 359.943L257.961 359.73C256.619 353.595 255.751 346.089 255.364 337.201L254.365 337.244L253.366 337.288C253.756 346.248 254.633 353.875 256.007 360.157L256.984 359.943ZM254.365 337.244L255.365 337.212C254.976 325.177 254.491 313.723 253.909 302.851L252.91 302.904L251.912 302.958C252.493 313.815 252.978 325.254 253.366 337.276L254.365 337.244ZM252.91 302.904L253.91 302.869C253.518 291.708 251.461 281.409 247.729 271.98L246.799 272.348L245.869 272.716C249.509 281.911 251.526 291.983 251.911 302.939L252.91 302.904ZM246.799 272.348L247.735 271.997C247.148 270.432 246.561 268.962 245.972 267.589L245.053 267.982L244.134 268.376C244.709 269.719 245.285 271.159 245.862 272.699L246.799 272.348ZM245.053 267.982L245.989 267.631C245.385 266.02 244.673 264.592 243.848 263.354L243.016 263.908L242.184 264.463C242.91 265.553 243.556 266.84 244.116 268.334L245.053 267.982ZM243.016 263.908L242.779 262.937C234.893 264.86 226.03 266.114 216.183 266.693L216.242 267.691L216.301 268.69C226.243 268.105 235.229 266.837 243.253 264.88L243.016 263.908ZM216.242 267.691L215.259 267.51C213.902 274.877 212.448 282.439 210.896 290.195L211.877 290.391L212.858 290.587C214.411 282.822 215.867 275.25 217.226 267.873L216.242 267.691ZM211.877 290.391L210.896 290.195C209.346 297.944 207.7 305.499 205.957 312.859L206.93 313.09L207.903 313.32C209.652 305.936 211.303 298.358 212.858 290.587L211.877 290.391ZM206.93 313.09L205.951 312.884C204.404 320.231 202.665 327.09 200.734 333.462L201.691 333.752L202.648 334.042C204.598 327.609 206.351 320.693 207.908 313.296L206.93 313.09ZM201.691 333.752L200.725 333.496C198.984 340.071 197.248 345.664 195.517 350.28L196.453 350.631L197.389 350.982C199.151 346.285 200.906 340.626 202.658 334.008L201.691 333.752ZM196.453 350.631L195.525 350.259C193.627 355.004 191.179 358.752 188.203 361.542L188.887 362.271L189.571 363.001C192.803 359.971 195.399 355.958 197.382 351.002L196.453 350.631ZM188.887 362.271L188.157 361.588C185.519 364.402 181.097 365.928 174.627 365.928V366.928V367.928C181.35 367.928 186.435 366.349 189.616 362.955L188.887 362.271ZM174.627 366.928V365.928C170.902 365.928 167.689 365.091 164.956 363.451L164.441 364.309L163.927 365.166C167.014 367.018 170.592 367.928 174.627 367.928V366.928ZM164.441 364.309L164.956 363.451C162.152 361.769 159.416 359.417 156.755 356.375L156.002 357.033L155.249 357.692C158.02 360.858 160.911 363.356 163.927 365.166L164.441 364.309ZM156.002 357.033L156.602 357.833C157.386 357.245 158.653 356.271 160.399 354.912L159.785 354.123L159.171 353.334C157.425 354.692 156.17 355.657 155.402 356.233L156.002 357.033ZM159.785 354.123L160.385 354.923C162.109 353.63 164.134 350.953 166.463 347.071L165.605 346.557L164.748 346.042C162.421 349.921 160.566 352.288 159.185 353.323L159.785 354.123ZM165.605 346.557L166.471 347.058C168.649 343.296 171.001 337.896 173.53 330.89L172.59 330.551L171.649 330.211C169.135 337.174 166.83 342.445 164.74 346.056L165.605 346.557ZM172.59 330.551L173.522 330.913C176.263 323.865 178.992 314.403 181.713 302.546L180.738 302.322L179.764 302.099C177.053 313.911 174.349 323.268 171.658 330.188L172.59 330.551ZM180.738 302.322L181.719 302.518C182.686 297.685 183.943 292.072 185.493 285.679L184.521 285.443L183.55 285.208C181.995 291.619 180.731 297.259 179.758 302.126L180.738 302.322ZM184.521 285.443L185.488 285.699C187.236 279.098 189.08 271.915 191.021 264.151L190.051 263.908L189.081 263.666C187.141 271.422 185.3 278.596 183.555 285.187L184.521 285.443ZM190.051 263.908L190.533 263.032C186.757 260.955 184.066 258.563 182.386 255.883C180.713 253.217 180.005 250.209 180.28 246.819L179.283 246.738L178.286 246.657C177.979 250.446 178.774 253.889 180.691 256.946C182.6 259.99 185.584 262.593 189.569 264.784L190.051 263.908ZM179.283 246.738L180.279 246.825C180.643 242.648 182.538 239.102 186.039 236.154L185.395 235.389L184.75 234.624C180.879 237.884 178.7 241.904 178.287 246.652L179.283 246.738ZM185.395 235.389L186.039 236.154C189.588 233.165 193.899 231.096 198.998 229.963L198.781 228.986L198.564 228.01C193.187 229.205 188.573 231.404 184.75 234.624L185.395 235.389ZM198.781 228.986L199.751 229.229C202.274 219.139 204.796 208.952 207.319 198.668L206.348 198.43L205.376 198.191C202.855 208.473 200.333 218.657 197.811 228.744L198.781 228.986ZM206.348 198.43L207.314 198.685C210.031 188.402 212.553 178.797 214.882 169.872L213.914 169.619L212.946 169.367C210.619 178.29 208.097 187.893 205.381 198.174L206.348 198.43ZM213.914 169.619L214.883 169.867C217.21 160.751 219.343 152.608 221.282 145.435L220.316 145.174L219.351 144.913C217.409 152.097 215.274 160.25 212.945 169.372L213.914 169.619ZM220.316 145.174L221.283 145.428C223.223 138.057 224.775 132.24 225.937 127.976L224.973 127.713L224.008 127.45C222.843 131.722 221.29 137.546 219.349 144.919L220.316 145.174ZM224.973 127.713L224.418 126.881C220.894 129.23 217.373 131.871 213.856 134.802L214.496 135.57L215.136 136.339C218.603 133.449 222.067 130.852 225.527 128.545L224.973 127.713ZM214.496 135.57L213.866 134.794C210.747 137.328 207.339 140.249 203.644 143.556L204.311 144.301L204.977 145.046C208.654 141.756 212.037 138.857 215.127 136.346L214.496 135.57ZM204.311 144.301L203.646 143.553C200.125 146.684 196.799 150.009 193.669 153.531L194.416 154.195L195.163 154.86C198.242 151.397 201.512 148.126 204.975 145.048L204.311 144.301ZM194.416 154.195L195.016 153.395C193.533 152.283 192.348 151.093 191.447 149.831L190.633 150.412L189.819 150.993C190.858 152.447 192.195 153.779 193.816 154.995L194.416 154.195ZM190.633 150.412L191.447 149.831C190.485 148.485 189.726 147.345 189.162 146.405L188.305 146.92L187.447 147.434C188.048 148.435 188.84 149.623 189.819 150.993L190.633 150.412ZM188.305 146.92L189.137 146.365C188.419 145.288 187.88 144.122 187.52 142.862L186.559 143.137L185.597 143.411C186.013 144.868 186.639 146.224 187.473 147.475L188.305 146.92ZM186.559 143.137L187.453 142.69C186.166 140.115 185.521 137.359 185.521 134.406H184.521H183.521C183.521 137.662 184.235 140.726 185.664 143.584L186.559 143.137ZM184.521 134.406H185.521C185.521 131.611 187.502 128.573 192.084 125.328L191.506 124.512L190.928 123.696C186.197 127.047 183.521 130.605 183.521 134.406H184.521ZM191.506 124.512L192.075 125.334C194.586 123.596 198.36 121.079 203.403 117.782L202.855 116.945L202.308 116.108C197.262 119.408 193.47 121.936 190.937 123.69L191.506 124.512ZM202.855 116.945L203.388 117.792C208.565 114.532 214.913 111.356 222.442 108.267L222.062 107.342L221.683 106.417C214.079 109.536 207.622 112.762 202.323 116.099L202.855 116.945ZM222.062 107.342L222.442 108.267C229.95 105.187 238.628 102.486 248.483 100.167L248.254 99.1934L248.025 98.2199C238.091 100.557 229.308 103.288 221.683 106.417L222.062 107.342ZM248.254 99.1934L248.479 100.168C258.482 97.8594 269.561 96.7012 281.721 96.7012V95.7012V94.7012C269.436 94.7012 258.203 95.8711 248.029 98.219L248.254 99.1934ZM281.721 95.7012V96.7012C293.819 96.7012 303.508 99.1023 310.865 103.818L311.404 102.977L311.944 102.135C304.168 97.1503 294.068 94.7012 281.721 94.7012V95.7012ZM311.404 102.977L310.865 103.818C318.313 108.593 324.016 114.399 328.001 121.232L328.865 120.729L329.729 120.225C325.566 113.089 319.629 107.061 311.944 102.135L311.404 102.977ZM328.865 120.729L328.001 121.232C332.014 128.111 334.589 135.363 335.734 142.994L336.723 142.846L337.712 142.697C336.528 134.808 333.865 127.315 329.729 120.225L328.865 120.729ZM336.723 142.846L335.738 143.018C337.085 150.718 337.462 157.413 336.892 163.117L337.887 163.217L338.882 163.316C339.475 157.38 339.076 150.495 337.708 142.673L336.723 142.846ZM250 243.246L250.437 244.146C257.286 240.819 264.031 236.712 270.672 231.829L270.08 231.023L269.488 230.218C262.936 235.035 256.295 239.077 249.563 242.347L250 243.246ZM270.08 231.023L270.661 231.837C277.53 226.931 283.708 221.046 289.195 214.187L288.414 213.562L287.633 212.938C282.256 219.659 276.211 225.415 269.499 230.21L270.08 231.023ZM288.414 213.562L289.195 214.187C294.687 207.323 299.291 199.581 303.01 190.969L302.092 190.572L301.174 190.176C297.52 198.636 293.006 206.222 287.633 212.938L288.414 213.562ZM302.092 190.572L303.013 190.961C306.745 182.122 309.094 172.221 310.072 161.269L309.076 161.18L308.08 161.091C307.118 171.867 304.811 181.562 301.171 190.183L302.092 190.572ZM309.076 161.18L310.073 161.259C310.855 151.479 310.179 143.282 307.988 136.709L307.039 137.025L306.09 137.342C308.168 143.573 308.849 151.479 308.079 161.1L309.076 161.18ZM307.039 137.025L307.998 136.743C306.02 130.016 302.934 124.612 298.707 120.586L298.018 121.311L297.328 122.035C301.25 125.77 304.178 130.842 306.08 137.308L307.039 137.025ZM298.018 121.311L298.725 120.603C294.734 116.613 290.131 113.808 284.925 112.206L284.631 113.162L284.337 114.118C289.219 115.62 293.541 118.248 297.31 122.018L298.018 121.311ZM284.631 113.162L284.958 112.217C279.815 110.437 274.66 109.543 269.498 109.543V110.543V111.543C274.425 111.543 279.359 112.395 284.304 114.107L284.631 113.162ZM269.498 110.543V109.543C264.744 109.543 259.9 110.236 254.969 111.617L255.238 112.58L255.508 113.543C260.278 112.208 264.94 111.543 269.498 111.543V110.543ZM255.238 112.58L254.958 111.62C250.249 112.994 245.639 114.759 241.129 116.916L241.561 117.818L241.992 118.72C246.406 116.609 250.915 114.883 255.518 113.54L255.238 112.58ZM241.561 117.818L241.244 118.767C241.605 118.887 242.151 119.241 242.891 119.981L243.598 119.273L244.305 118.566C243.493 117.754 242.68 117.138 241.877 116.87L241.561 117.818ZM243.598 119.273L242.766 119.828C243.101 120.332 243.46 121.039 243.833 121.973L244.762 121.602L245.69 121.23C245.288 120.224 244.87 119.379 244.43 118.719L243.598 119.273ZM244.762 121.602L243.962 122.202C244.452 122.856 244.78 123.59 244.945 124.417L245.926 124.221L246.906 124.025C246.684 122.911 246.235 121.899 245.562 121.002L244.762 121.602ZM245.926 124.221L244.953 123.99C240.49 142.813 236.899 158.535 234.181 171.155L235.158 171.365L236.136 171.576C238.85 158.974 242.437 143.267 246.899 124.451L245.926 124.221ZM235.158 171.365L234.181 171.155C231.465 183.765 229.234 194.046 227.488 201.998L228.465 202.213L229.442 202.427C231.188 194.471 233.42 184.187 236.136 171.576L235.158 171.365ZM228.465 202.213L227.49 201.99C225.354 211.31 223.798 218.799 222.823 224.451L223.809 224.621L224.794 224.791C225.76 219.191 227.307 211.741 229.44 202.436L228.465 202.213ZM223.809 224.621L222.838 224.379C222.828 224.422 222.776 224.626 222.766 224.67C222.755 224.713 222.704 224.917 222.693 224.961C222.682 225.004 222.631 225.208 222.62 225.252C222.609 225.295 222.558 225.5 222.547 225.543C222.504 225.715 222.445 225.952 222.402 226.125C222.359 226.297 222.3 226.534 222.256 226.707L223.227 226.949L224.197 227.192C224.207 227.149 224.259 226.944 224.269 226.901C224.28 226.858 224.331 226.653 224.342 226.61C224.353 226.567 224.404 226.362 224.415 226.319C224.426 226.276 224.477 226.071 224.488 226.028C224.531 225.855 224.59 225.618 224.633 225.446C224.676 225.273 224.736 225.036 224.779 224.864L223.809 224.621ZM223.227 226.949H222.227C222.227 227.644 222.139 228.45 221.955 229.372L222.936 229.568L223.916 229.764C224.12 228.747 224.227 227.806 224.227 226.949H223.227ZM222.936 229.568L222.714 230.543C226.905 231.496 231.302 233.024 235.906 235.134L236.322 234.225L236.739 233.316C232.03 231.157 227.503 229.581 223.157 228.593L222.936 229.568ZM236.322 234.225L235.938 235.148C240.469 237.036 244.932 239.973 249.326 243.985L250 243.246L250.674 242.508C246.143 238.371 241.488 235.294 236.707 233.302L236.322 234.225Z" fill="black" mask="url(#path-2-outside-1_29_2)"/>
</svg>
